<svg xmlns="http://www.w3.org/2000/svg" width="448" height="512">
   <path style="fill: #ccc;" d="m 58.125267,238.7161 c 8.41175,-4.77718 14.96662,-0.2116 27.9757,-7.64593 7.84467,-4.483 21.328843,-6.26482 62.745433,-20.93747 14.07707,-3.91607 27.26797,-12.07133 41.93952,-13.62545 11.49759,-1.28757 22.54978,-5.02019 33.81874,-7.52596 6.97573,-1.45459 23.44455,-7.9638 28.65406,-11.32533 14.22671,-4.22583 26.12204,-10.84452 39.32463,-16.87134 7.1274,-1.95279 49.60979,-41.78274 47.1495,-44.20565 -0.79803,-0.7859 -5.34116,0.2523 -10.98257,2.50978 -10.46386,4.18725 -13.01222,4.61285 -14.39806,2.40458 -0.99496,-1.58541 6.40583,-17.02322 8.54703,-17.82883 2.65559,-3.45312 4.70179,-7.956374 7.22144,-11.783884 8.28401,-12.95408 13.74244,-27.40373 19.69512,-41.51005 3.40763,-9.165528 14.7329,-11.223448 19.46256,-19.230338 0.52939,-1.6426 4.559,-6.83553 8.9547,-11.53985 4.3957,-4.70431 7.5011,-11.2121503 10.46818,-14.4618523 5.08374,-5.56796296 5.69245,-5.82283596 10.56057,-4.42170996 l 5.16586,1.48683996 c 0.55294,4.060302 -0.78101,17.8412423 4.78632,18.6058023 1.57305,0 3.68365,-0.81103 4.69019,-1.80228 3.61784,-3.56288 4.78784,0.71104 3.16693,11.56865 -0.86292,5.78015 -2.26297,12.74826 -3.11126,15.48473 -1.36098,4.390328 -1.09096,15.918898 1.04426,44.587428 1.48953,19.999174 2.88841,29.552134 5.49823,37.547614 1.6178,4.95628 3.6088,11.08697 4.42445,13.62377 1.98068,6.16019 1.89122,19.74335 -0.13817,20.9785 -3.21665,1.05185 -4.96585,-3.51759 -7.95321,-2.78464 -0.39971,0.67334 -0.0899,7.30697 0.68839,14.74139 3.62326,34.60854 3.44073,42.80427 -0.95326,42.80427 -4.07079,0 -4.22494,6.51912 -0.66525,28.13239 0.93488,15.21735 -5.01301,4.16603 -9.73749,4.71845 -1.27913,1.2597 -1.71811,7.22218 -1.43817,19.53406 l 0.40294,17.7209 c -4.9752,6.07448 -9.65901,12.40506 -14.92294,18.23835 -3.25149,3.68097 -2.40607,9.19798 -2.66736,13.78533 -0.25545,4.54326 -1.53408,13.66733 -2.8414,20.2757 -3.37876,17.07923 -5.33459,27.20756 -7.25067,37.5476 -0.91844,4.95629 -3.74949,17.45964 -6.29124,27.78523 l -4.62135,18.7738 2.56735,15.72617 c 1.41204,8.64939 2.84163,15.99627 3.17685,16.32642 6.34586,1.85526 12.87624,2.66311 18.66929,6.10856 7.23067,4.14791 15.37906,5.46149 22.03926,10.70513 5.9534,5.04217 13.25002,7.88284 19.82231,12.05079 C 438.42285,488.6504 453.06387,512 446.20941,512 H 14.901324 c -11.0639642,0 -1.856438,-23.44394 -0.506719,-29.69674 0.850979,-3.9423 2.340158,-18.31946 3.309288,-31.94924 0.96913,-13.62977 2.41882,-26.13822 3.22153,-27.79654 0.80271,-1.65832 3.83455,-4.61783 6.73742,-6.57669 5.93579,-4.00548 1.54829,-9.52929 7.16998,-13.02126 7.2173,-4.48312 17.553644,-10.11495 18.344424,-10.185 0.79079,-0.07 2.47419,-17.81275 2.95677,-18.58172 0.48258,-0.76897 1.501,-6.18723 1.52409,-7.08206 0.0231,-0.89483 0.83661,-8.02818 1.44065,-11.42952 0.0948,-4.1652 -3.02403,-7.29928 -3.02403,-8.09627 -0.82458,-5.15288 -4.92621,-5.78717 -4.50442,-11.1156 1.93228,-6.68006 -5.08848,-27.98361 -7.3751,-31.5501 0.82633,-3.88298 25.61542,34.56665 11.53352,61.12953 -3.62117,6.83068 -2.36173,9.1648 -6.16393,15.92111 -16.101774,28.612 -44.5618142,66.46987 -49.4167222,28.964 -1.072758,-8.28743 4.018441,-33.04482 4.510889,-49.66752 0.580852,-19.6068 -5.884916,-50.89137 11.3602822,-79.49705 20.003007,-33.18022 23.801267,-33.85897 42.106021,-43.05323 z m 0.91185,261.09059 c 10.98768,-5.96558 11.70428,-6.13436 28.80632,-6.78497 16.165203,-0.61497 39.688733,-5.12235 49.564903,-9.49722 7.98032,-3.53503 16.43733,-6.13621 19.95027,-6.13621 3.72865,0 3.83634,0.25569 2.84612,6.75858 -0.93502,6.14042 -0.74342,6.75856 2.09489,6.75856 1.71821,0 5.05598,-0.73246 7.41726,-1.6277 2.36128,-0.89524 8.28424,-2.26884 13.16215,-3.05243 9.22476,-1.48188 14.76972,-3.95608 14.76972,-6.59031 0,-0.84506 -4.48315,-8.28587 -9.96255,-16.53515 -10.31784,-15.53356 -24.28676,-29.88831 -35.2572,-36.23102 -6.70223,-3.87499 -8.4299,-7.47373 -7.11147,-14.81335 0.44514,-2.47814 1.12973,-7.54707 1.52131,-11.26428 0.75794,-7.1954 1.16021,-6.41033 -12.24244,-23.89325 -5.72136,-7.46318 -10.15118,-9.84766 -10.15118,-5.46419 -5.85611,9.44062 -16.94544,14.38926 -23.1903,23.55736 -16.562703,19.56347 -29.513813,28.29136 -43.573053,40.34387 -10.50426,6.71379 -18.883024,17.20586 -21.437304,29.35835 -1.07461,5.74316 -2.36937,12.13175 -2.87723,14.19687 -1.23654,5.02807 -0.84682,6.66266 4.20408,17.63293 3.13073,6.79979 5.14059,9.40134 7.263124,9.40134 1.61402,0 8.00518,-2.753 14.20258,-6.11778 z m 205.500313,-25.3616 c 7.41685,-2.12234 12.66139,-8.35388 20.00651,-10.58068 5.31602,-1.04712 5.92467,-9.19121 1.45212,-19.43001 -3.40858,-7.80306 -3.30347,-17.81872 0.231,-22.01279 0.83344,-0.98897 4.34795,-10.48449 7.81003,-21.10119 5.71053,-17.51165 6.35661,-21.09056 6.96177,-38.56447 0.75999,-21.94434 -0.31201,-31.90859 -3.56515,-33.13796 -1.23675,-0.46737 -5.70128,-0.0649 -9.92122,0.89439 -8.75919,1.99113 -10.43482,1.32978 -26.57319,-10.48819 -13.46001,-9.85663 -23.48881,-13.74721 -37.98191,-14.73471 -9.52885,-0.64926 -13.56333,-1.65433 -17.68327,-4.40526 -3.91007,-2.61081 -8.45664,-3.83802 -16.99853,-4.58822 -10.56981,-0.92831 -11.80872,-0.75189 -13.24209,1.88572 -2.07859,3.82485 -1.33475,8.73521 2.57532,17.00093 1.75843,3.71722 3.21221,8.72093 3.23063,11.11937 0.0346,4.50729 6.42565,19.38405 10.10441,23.52058 3.41404,7.89846 -1.47794,19.57824 -3.93234,27.57482 -1.33661,5.26437 -1.16039,10.19636 -3.19157,15.32695 -5.15594,11.92889 -3.82911,18.01693 5.52231,25.33871 6.79302,4.17412 10.64711,9.68998 14.50284,16.52094 2.70199,4.9563 6.56774,12.05279 8.59057,15.77 2.09836,4.41406 3.84514,6.82191 8.47046,7.33797 1.04848,0.11217 4.84479,2.97127 8.43624,6.35357 5.70382,5.37169 7.15969,6.0333 11.50841,5.22986 3.87127,-0.71521 6.13113,-0.0824 10.16094,2.84559 5.8285,4.2348 6.40804,4.33437 13.52571,2.32408 z m 76.84898,-16.35574 c 2.1954,-2.16205 -1.32115,-12.8282 -6.05659,-18.37045 -4.06909,-4.76237 -4.33684,-9.81081 -1.06892,-20.15391 5.10683,-16.16337 9.37725,-33.95816 12.95119,-53.96751 1.41595,-6.16803 -0.30391,-14.37667 -6.71569,-16.95543 -0.93378,0.30652 -2.69064,3.88624 -3.90416,7.95491 -2.08459,6.98924 -10.65131,32.01041 -17.18806,50.20184 -1.63253,4.54327 -4.35692,13.95363 -6.05417,20.9119 -3.06314,12.55795 -3.01148,16.30968 0.40194,29.19357 1.47657,5.57333 1.7255,5.75473 6.38844,4.65562 6.67725,-2.35149 15.02092,0.21656 21.24602,-3.47054 z" />
</svg>